<svg width="166" height="40" viewBox="0 0 166 40" fill="none" xmlns="http://www.w3.org/2000/svg">
<path d="M19.436 16.5601L15.2178 15.8855C14.8975 15.8357 14.5704 15.9132 14.3064 16.1013C14.0425 16.2895 13.8626 16.5734 13.8052 16.8924C13.2333 20.1282 12.3388 20.7441 10.9507 20.7441C8.01795 20.7441 7.66113 16.5161 7.66113 13.3341C7.66113 6.9212 9.38166 6.09516 10.8822 6.09516C12.3828 6.09516 13.0622 7.01408 13.5315 9.59975C13.5954 9.91734 13.781 10.1973 14.0486 10.38C14.3162 10.5626 14.6445 10.6334 14.9636 10.5773L19.2307 9.8197C19.5401 9.76121 19.8158 9.58731 20.0019 9.3332C20.1879 9.07909 20.2704 8.76377 20.2327 8.45111C19.3089 2.68344 16.4055 0 11.0826 0C7.17235 0 0.563965 1.73519 0.563965 13.3536C0.563965 24.366 6.19478 26.6779 10.9164 26.6779C16.1122 26.6779 19.2258 23.8527 20.4527 18.0509C20.4903 17.8833 20.4924 17.7097 20.4587 17.5413C20.425 17.3729 20.3563 17.2135 20.2571 17.0733C20.1618 16.9369 20.04 16.8211 19.8989 16.733C19.7578 16.6448 19.6003 16.586 19.436 16.5601Z" fill="white"/>
<path d="M37.3156 16.272C37.2717 16.1691 37.2669 16.0538 37.302 15.9476C37.3371 15.8414 37.4097 15.7517 37.5062 15.6952C39.608 14.3853 40.8104 11.9804 40.8104 9.10637C40.8104 3.38269 37.6822 0.479309 31.5235 0.479309H24.2112C23.8846 0.479309 23.5713 0.609085 23.3403 0.840081C23.1093 1.07108 22.9795 1.38437 22.9795 1.71104V25.0115C22.9795 25.3381 23.1093 25.6514 23.3403 25.8824C23.5713 26.1134 23.8846 26.2432 24.2112 26.2432H28.6396C28.9663 26.2432 29.2796 26.1134 29.5106 25.8824C29.7416 25.6514 29.8714 25.3381 29.8714 25.0115V18.1685C29.8727 18.0488 29.9211 17.9344 30.0062 17.8502C30.0913 17.766 30.2062 17.7188 30.3259 17.7188C30.4125 17.7186 30.4973 17.7434 30.5702 17.7902C30.643 17.837 30.7008 17.9039 30.7365 17.9827L34.158 25.5051C34.2564 25.7208 34.4146 25.9036 34.6139 26.0318C34.8132 26.1601 35.0452 26.2284 35.2822 26.2285H39.9208C40.1267 26.2289 40.3295 26.1777 40.5105 26.0795C40.6915 25.9813 40.8451 25.8393 40.957 25.6664C41.068 25.4927 41.1341 25.2941 41.1494 25.0885C41.1648 24.883 41.1289 24.6768 41.045 24.4885L37.3156 16.272ZM31.3377 12.2248H30.3259C30.2062 12.2248 30.0913 12.1776 30.0062 12.0934C29.9211 12.0092 29.8727 11.8949 29.8714 11.7751V6.88728C29.8727 6.76757 29.9211 6.6532 30.0062 6.56901C30.0913 6.48481 30.2062 6.4376 30.3259 6.43761H31.3377C33.3417 6.43761 34.0554 7.16589 34.0554 9.22368C34.0554 11.3841 33.2929 12.2004 31.3377 12.2004V12.2248Z" fill="white"/>
<path d="M58.4508 20.3384H50.9186C50.7994 20.3384 50.685 20.291 50.6007 20.2067C50.5163 20.1223 50.469 20.008 50.469 19.8887V16.2375C50.469 16.1784 50.4806 16.12 50.5032 16.0654C50.5258 16.0108 50.5589 15.9613 50.6007 15.9195C50.6424 15.8777 50.692 15.8446 50.7466 15.822C50.8011 15.7994 50.8596 15.7878 50.9186 15.7878H55.5132C55.8404 15.7865 56.1536 15.6556 56.3845 15.4239C56.6154 15.1921 56.745 14.8783 56.745 14.5512V11.3056C56.745 10.9789 56.6152 10.6657 56.3842 10.4347C56.1532 10.2037 55.8399 10.0739 55.5132 10.0739H50.9186C50.8596 10.0739 50.8011 10.0623 50.7466 10.0397C50.692 10.0171 50.6424 9.98393 50.6007 9.94218C50.5589 9.90042 50.5258 9.85085 50.5032 9.79629C50.4806 9.74173 50.469 9.68325 50.469 9.6242V6.95054C50.469 6.83128 50.5163 6.7169 50.6007 6.63257C50.685 6.54823 50.7994 6.50087 50.9186 6.50087H58.0451C58.3718 6.50087 58.6851 6.37109 58.9161 6.14009C59.1471 5.9091 59.2769 5.5958 59.2769 5.26912V1.68632C59.2769 1.35965 59.1471 1.04634 58.9161 0.815347C58.6851 0.584351 58.3718 0.45459 58.0451 0.45459H44.6377C44.3111 0.45459 43.9978 0.584351 43.7668 0.815347C43.5358 1.04634 43.406 1.35965 43.406 1.68632V24.9867C43.406 25.3134 43.5358 25.6267 43.7668 25.8577C43.9978 26.0887 44.3111 26.2185 44.6377 26.2185H58.4508C58.7775 26.2185 59.0908 26.0887 59.3218 25.8577C59.5528 25.6267 59.6826 25.3134 59.6826 24.9867V21.5652C59.6813 21.2394 59.5509 20.9274 59.3201 20.6974C59.0892 20.4675 58.7767 20.3384 58.4508 20.3384Z" fill="white"/>
<path d="M87.9102 0.45458H84.127C83.8379 0.452586 83.5575 0.553134 83.3356 0.738382C83.1136 0.923631 82.9646 1.18157 82.9148 1.46635L81.4485 9.65351C81.2285 10.8461 81.0526 11.8286 80.8668 13.075C80.7006 11.9606 80.5296 11.0319 80.334 9.97611L78.8335 1.49568C78.7837 1.2096 78.6341 0.950436 78.4113 0.764278C78.1884 0.578119 77.9068 0.477036 77.6164 0.479013H73.4617C73.1716 0.478011 72.8905 0.579437 72.6678 0.765426C72.4451 0.951415 72.2953 1.21002 72.2446 1.49568L70.8516 9.47756L70.6952 10.3183C70.5241 11.247 70.3775 12.0632 70.2064 13.1239C70.0158 11.8237 69.8496 10.9195 69.6296 9.70239L68.1633 1.49568C68.1127 1.21132 67.9633 0.953951 67.7416 0.768872C67.5198 0.583792 67.2399 0.482886 66.9511 0.483906H62.6595C62.4723 0.480452 62.2867 0.520082 62.1172 0.599748C61.9477 0.679414 61.7988 0.796986 61.682 0.943366C61.5669 1.08715 61.4853 1.25472 61.4431 1.43394C61.4008 1.61316 61.3989 1.79955 61.4376 1.97959L66.6383 25.3826C66.6956 25.659 66.8466 25.9072 67.0656 26.0853C67.2846 26.2634 67.5584 26.3605 67.8407 26.3602H71.9269C72.2165 26.361 72.497 26.2594 72.7188 26.0734C72.9406 25.8873 73.0895 25.6288 73.1391 25.3435L75.2947 13.339L77.4209 25.2898C77.4714 25.5746 77.6205 25.8326 77.8422 26.0184C78.0638 26.2043 78.3438 26.3063 78.6331 26.3064H82.7242C83.0065 26.3067 83.2803 26.2096 83.4993 26.0315C83.7183 25.8534 83.8693 25.6053 83.9266 25.3289L89.1224 1.93071C89.1637 1.75045 89.1637 1.56319 89.1223 1.38294C89.081 1.20269 88.9995 1.03411 88.8839 0.8898C88.7683 0.745492 88.6215 0.629197 88.4546 0.549599C88.2877 0.47 88.1049 0.429154 87.92 0.430132L87.9102 0.45458Z" fill="white"/>
<path d="M104.201 10.7436H99.875C99.8252 10.7442 99.7757 10.735 99.7295 10.7164C99.6833 10.6977 99.6412 10.6701 99.6057 10.6351C99.5703 10.6001 99.5421 10.5584 99.5229 10.5124C99.5037 10.4664 99.4938 10.4171 99.4938 10.3672V6.94574C99.4951 6.84548 99.5358 6.74975 99.6072 6.6793C99.6785 6.60886 99.7748 6.56936 99.875 6.56937H106.664C107.01 6.56808 107.341 6.43017 107.586 6.1857C107.83 5.94123 107.968 5.61005 107.969 5.26432V1.68151C107.968 1.33579 107.83 1.00459 107.586 0.760119C107.341 0.515651 107.01 0.377752 106.664 0.376465H93.5941C93.2484 0.377752 92.9172 0.515651 92.6727 0.760119C92.4283 1.00459 92.2904 1.33579 92.2891 1.68151V24.9819C92.2904 25.3277 92.4283 25.6589 92.6727 25.9033C92.9172 26.1478 93.2484 26.2857 93.5941 26.287H98.174C98.5202 26.287 98.8521 26.1495 99.0969 25.9047C99.3416 25.66 99.4791 25.328 99.4791 24.9819V16.9805C99.4791 16.9307 99.489 16.8813 99.5082 16.8353C99.5274 16.7894 99.5556 16.7476 99.5911 16.7126C99.6265 16.6776 99.6686 16.65 99.7148 16.6314C99.7611 16.6127 99.8105 16.6035 99.8604 16.6041H104.186C104.359 16.6054 104.53 16.5725 104.69 16.5073C104.85 16.442 104.996 16.3457 105.119 16.2239C105.241 16.1022 105.339 15.9573 105.405 15.7978C105.472 15.6382 105.506 15.467 105.506 15.2942V12.0486C105.505 11.7029 105.367 11.3717 105.122 11.1273C104.878 10.8828 104.546 10.7449 104.201 10.7436ZM104.577 15.2942C104.577 15.3945 104.538 15.4907 104.467 15.5621C104.397 15.6334 104.301 15.6742 104.201 15.6754H99.875C99.7032 15.6748 99.533 15.7081 99.3741 15.7734C99.2152 15.8387 99.0708 15.9347 98.9491 16.056C98.8273 16.1772 98.7308 16.3213 98.6649 16.48C98.599 16.6386 98.5651 16.8087 98.5651 16.9805V24.9868C98.5651 25.0866 98.5254 25.1824 98.4548 25.2529C98.3843 25.3235 98.2885 25.3632 98.1887 25.3632H93.5941C93.4943 25.3632 93.3986 25.3235 93.328 25.2529C93.2574 25.1824 93.2178 25.0866 93.2178 24.9868V1.68641C93.2171 1.6368 93.2264 1.58756 93.2451 1.5416C93.2637 1.49564 93.2914 1.45388 93.3265 1.4188C93.3616 1.38372 93.4034 1.35603 93.4493 1.33734C93.4953 1.31866 93.5445 1.30939 93.5941 1.31005H106.664C106.764 1.31005 106.86 1.3497 106.93 1.42028C107.001 1.49086 107.041 1.58659 107.041 1.68641V5.2692C107.041 5.36902 107.001 5.46476 106.93 5.53534C106.86 5.60592 106.764 5.64557 106.664 5.64557H99.875C99.5285 5.64557 99.196 5.7829 98.9505 6.02751C98.7049 6.27212 98.5664 6.60405 98.5651 6.95062V10.3721C98.5664 10.7187 98.7049 11.0506 98.9505 11.2952C99.196 11.5398 99.5285 11.6772 99.875 11.6772H104.201C104.3 11.6784 104.395 11.7185 104.466 11.7888C104.536 11.8591 104.576 11.9541 104.577 12.0535V15.2942Z" fill="white"/>
<path d="M118.063 14.776C117.897 14.0966 117.736 13.4807 117.574 12.8942C117.174 11.4239 116.848 9.93448 116.597 8.43155L116.533 8.04053H115.673L115.609 8.43644C115.371 9.89836 115.045 11.3445 114.632 12.7671C114.461 13.3829 114.28 14.0379 114.089 14.776L113.439 17.2492H118.635L118.068 14.8053L118.063 14.776ZM114.642 16.3157L114.964 15.0057C115.155 14.2725 115.331 13.6224 115.502 13.0115C115.717 12.2245 115.917 11.4962 116.098 10.7386C116.279 11.5305 116.479 12.3027 116.695 13.1288C116.846 13.7104 117.002 14.3214 117.183 14.996L117.486 16.3157H114.642Z" fill="white"/>
<path d="M119.926 1.22167C119.846 0.950174 119.68 0.71172 119.454 0.541762C119.228 0.371803 118.952 0.279416 118.669 0.27832H113.816C113.533 0.279682 113.259 0.372257 113.034 0.542254C112.808 0.712251 112.644 0.950565 112.565 1.22167L105.761 24.6198C105.705 24.8142 105.695 25.0189 105.731 25.2179C105.768 25.4168 105.85 25.6046 105.971 25.7665C106.092 25.9285 106.249 26.0601 106.43 26.1512C106.61 26.2423 106.81 26.2903 107.012 26.2915H111.084C111.372 26.2918 111.653 26.1959 111.882 26.0189C112.11 25.8419 112.273 25.5938 112.345 25.3139L113.102 22.3568C113.124 22.2758 113.171 22.2042 113.237 22.1529C113.304 22.1017 113.385 22.0737 113.469 22.0733H118.572C118.656 22.0748 118.737 22.1038 118.803 22.1559C118.87 22.2079 118.917 22.2802 118.938 22.3616L119.667 25.2944C119.739 25.5747 119.903 25.8228 120.132 25.9998C120.361 26.1768 120.643 26.2725 120.933 26.2719H125.468C125.671 26.2728 125.872 26.2261 126.053 26.1356C126.235 26.0451 126.393 25.9134 126.515 25.7509C126.636 25.5884 126.718 25.3997 126.754 25.1999C126.789 25.0001 126.778 24.7948 126.72 24.6003L119.926 1.22167ZM125.791 25.2113C125.756 25.2585 125.71 25.2967 125.658 25.3231C125.605 25.3494 125.547 25.363 125.488 25.3628H120.952C120.868 25.3621 120.786 25.3334 120.72 25.2812C120.653 25.229 120.606 25.1563 120.585 25.0744L119.857 22.1417C119.785 21.861 119.622 21.6123 119.392 21.4352C119.163 21.2581 118.881 21.1627 118.591 21.1641H113.474C113.184 21.1644 112.903 21.2604 112.674 21.4373C112.445 21.6141 112.281 21.8618 112.208 22.1417L111.45 25.0744C111.43 25.1554 111.384 25.2274 111.318 25.2788C111.253 25.3302 111.172 25.3581 111.088 25.3579H107.017C106.959 25.3585 106.901 25.3451 106.849 25.3187C106.797 25.2923 106.753 25.2538 106.719 25.2064C106.684 25.1594 106.66 25.1051 106.649 25.0475C106.638 24.9899 106.64 24.9306 106.655 24.874L113.459 1.47585C113.482 1.39751 113.53 1.32862 113.595 1.27934C113.66 1.23006 113.739 1.20301 113.821 1.20213H118.669C118.751 1.20222 118.831 1.22898 118.896 1.27837C118.961 1.32776 119.009 1.3971 119.031 1.47585L125.835 24.874C125.852 24.9309 125.856 24.991 125.846 25.0496C125.836 25.1082 125.812 25.1635 125.776 25.2113H125.791Z" fill="white"/>
<path d="M136.696 5.57703H135.684C135.338 5.57703 135.006 5.71453 134.761 5.95928C134.516 6.20402 134.379 6.53597 134.379 6.88209V11.7699C134.378 11.9415 134.412 12.1115 134.477 12.2701C134.542 12.4288 134.638 12.5729 134.76 12.6942C134.881 12.8155 135.025 12.9116 135.184 12.977C135.342 13.0423 135.512 13.0756 135.684 13.075H136.696C139.14 13.075 140.269 11.8579 140.269 9.23803C140.269 6.70123 139.169 5.57703 136.696 5.57703ZM136.696 12.1268H135.684C135.634 12.1274 135.585 12.1181 135.539 12.0994C135.493 12.0808 135.451 12.0531 135.416 12.018C135.381 11.9829 135.354 11.9412 135.335 11.8952C135.316 11.8492 135.307 11.8 135.308 11.7504V6.86253C135.308 6.76272 135.347 6.66699 135.418 6.59641C135.488 6.52583 135.584 6.48618 135.684 6.48618H136.696C138.651 6.48618 139.34 7.17047 139.34 9.19893C139.34 11.3398 138.622 12.1268 136.696 12.1268Z" fill="white"/>
<path d="M143.231 16.218C143.193 16.131 143.189 16.033 143.218 15.9428C143.248 15.8526 143.31 15.7766 143.392 15.7292C145.514 14.4046 146.731 11.9802 146.731 9.07684C146.731 3.30428 143.578 0.376465 137.356 0.376465H130.058C129.713 0.377752 129.381 0.515651 129.137 0.760119C128.892 1.00459 128.754 1.33579 128.753 1.68151V24.9819C128.754 25.3277 128.892 25.6589 129.137 25.9033C129.381 26.1478 129.713 26.2857 130.058 26.287H134.487C134.833 26.287 135.166 26.1496 135.411 25.905C135.657 25.6604 135.795 25.3285 135.797 24.9819V18.1389C135.798 18.0535 135.828 17.971 135.882 17.905C135.937 17.839 136.012 17.7935 136.095 17.7758C136.179 17.7582 136.266 17.7696 136.342 17.808C136.419 17.8465 136.48 17.9097 136.515 17.9874L139.937 25.5049C140.04 25.7334 140.207 25.9273 140.418 26.0634C140.628 26.1995 140.874 26.272 141.124 26.2723H145.763C145.981 26.2716 146.195 26.2166 146.387 26.1121C146.578 26.0077 146.74 25.8571 146.859 25.6741C146.977 25.4911 147.048 25.2815 147.065 25.0642C147.082 24.8468 147.044 24.6287 146.956 24.4296L143.231 16.218ZM146.076 25.1921C146.041 25.2446 145.994 25.2878 145.938 25.3176C145.883 25.3475 145.821 25.3631 145.758 25.3632H141.119C141.047 25.3627 140.976 25.3412 140.915 25.3013C140.854 25.2615 140.807 25.2048 140.777 25.1383L137.356 17.6208C137.232 17.3498 137.02 17.1291 136.754 16.9954C136.488 16.8617 136.184 16.8231 135.893 16.8858C135.602 16.9486 135.341 17.1091 135.154 17.3406C134.966 17.5721 134.864 17.8607 134.863 18.1585V25.0015C134.862 25.1017 134.821 25.1975 134.75 25.2679C134.678 25.3384 134.582 25.3778 134.482 25.3778H130.053C129.954 25.3766 129.859 25.3365 129.789 25.2662C129.718 25.1959 129.678 25.1009 129.677 25.0015V1.68641C129.677 1.58659 129.717 1.49086 129.787 1.42028C129.858 1.3497 129.954 1.31005 130.053 1.31005H137.351C143.114 1.31005 145.797 3.77841 145.797 9.08173C145.797 11.6967 144.766 13.779 142.899 14.9472C142.625 15.1125 142.421 15.3723 142.326 15.6775C142.23 15.9827 142.25 16.3123 142.381 16.6041L146.076 24.8304C146.107 24.8857 146.123 24.9479 146.123 25.0113C146.123 25.0746 146.107 25.1368 146.076 25.1921Z" fill="white"/>
<path d="M164.131 20.265H156.599C156.499 20.265 156.403 20.2253 156.333 20.1547C156.262 20.0841 156.223 19.9884 156.223 19.8886V16.2374C156.222 16.1878 156.231 16.1385 156.25 16.0926C156.269 16.0466 156.296 16.0049 156.331 15.9698C156.366 15.9347 156.408 15.907 156.454 15.8883C156.5 15.8696 156.549 15.8603 156.599 15.861H161.193C161.54 15.8597 161.872 15.7211 162.117 15.4756C162.361 15.2301 162.499 14.8976 162.499 14.5511V11.3055C162.497 10.9598 162.359 10.6286 162.115 10.3841C161.87 10.1397 161.539 10.0018 161.193 10.0005H156.599C156.549 10.0011 156.5 9.99184 156.454 9.97316C156.408 9.95448 156.366 9.92678 156.331 9.8917C156.296 9.85662 156.269 9.81487 156.25 9.76891C156.231 9.72295 156.222 9.6737 156.223 9.6241V6.95044C156.223 6.85062 156.262 6.7549 156.333 6.68431C156.403 6.61373 156.499 6.57408 156.599 6.57408H163.725C164.071 6.57279 164.402 6.43488 164.647 6.19041C164.891 5.94595 165.029 5.61474 165.03 5.26902V1.68623C165.029 1.3405 164.891 1.0093 164.647 0.764833C164.402 0.520366 164.071 0.382452 163.725 0.381165H150.318C149.972 0.382452 149.641 0.520366 149.397 0.764833C149.152 1.0093 149.014 1.3405 149.013 1.68623V24.9866C149.014 25.3323 149.152 25.6635 149.397 25.908C149.641 26.1525 149.972 26.2904 150.318 26.2917H164.131C164.477 26.2904 164.808 26.1525 165.052 25.908C165.297 25.6635 165.435 25.3323 165.436 24.9866V21.5651C165.434 21.2202 165.295 20.8903 165.051 20.6469C164.806 20.4035 164.476 20.2662 164.131 20.265ZM164.507 24.9866C164.507 25.0864 164.468 25.1822 164.397 25.2528C164.327 25.3233 164.231 25.363 164.131 25.363H150.318C150.218 25.363 150.122 25.3233 150.052 25.2528C149.981 25.1822 149.942 25.0864 149.942 24.9866V1.68623C149.941 1.63662 149.95 1.58738 149.969 1.54142C149.988 1.49546 150.015 1.45371 150.05 1.41863C150.085 1.38354 150.127 1.35585 150.173 1.33717C150.219 1.31848 150.268 1.30921 150.318 1.30987H163.725C163.775 1.30921 163.824 1.31848 163.87 1.33717C163.916 1.35585 163.958 1.38354 163.993 1.41863C164.028 1.45371 164.056 1.49546 164.074 1.54142C164.093 1.58738 164.102 1.63662 164.102 1.68623V5.26902C164.102 5.31862 164.093 5.36787 164.074 5.41383C164.056 5.45979 164.028 5.50154 163.993 5.53662C163.958 5.5717 163.916 5.5994 163.87 5.61808C163.824 5.63676 163.775 5.64605 163.725 5.64539H156.599C156.253 5.64539 155.921 5.78288 155.676 6.02763C155.431 6.27237 155.294 6.60432 155.294 6.95044V9.6241C155.294 9.97022 155.431 10.3022 155.676 10.5469C155.921 10.7917 156.253 10.9292 156.599 10.9292H161.193C161.293 10.9292 161.389 10.9688 161.46 11.0394C161.53 11.11 161.57 11.2057 161.57 11.3055V14.5511C161.57 14.6009 161.561 14.6504 161.543 14.6966C161.524 14.7428 161.496 14.7849 161.461 14.8204C161.426 14.8558 161.385 14.884 161.339 14.9032C161.293 14.9224 161.243 14.9323 161.193 14.9323H156.599C156.427 14.9317 156.257 14.965 156.099 15.0303C155.94 15.0957 155.796 15.1918 155.675 15.3131C155.553 15.4344 155.457 15.5786 155.392 15.7372C155.326 15.8958 155.293 16.0658 155.294 16.2374V19.8886C155.294 20.2347 155.431 20.5667 155.676 20.8114C155.921 21.0561 156.253 21.1937 156.599 21.1937H164.131C164.181 21.193 164.23 21.2023 164.276 21.221C164.322 21.2396 164.364 21.2673 164.399 21.3024C164.434 21.3375 164.461 21.3793 164.48 21.4252C164.499 21.4712 164.508 21.5204 164.507 21.57V24.9866Z" fill="white"/>
<path d="M7.76084 38.2203H4.87244L4.40941 39.6H2.43604L5.23624 31.7892H7.41908L10.2193 39.6H8.22386L7.76084 38.2203ZM7.27576 36.7516L6.31664 33.8921L5.36853 36.7516H7.27576Z" fill="white"/>
<path d="M23.8709 38.1313H26.3404V39.6H21.9857V31.7892H23.8709V38.1313Z" fill="white"/>
<path d="M40.0389 38.1313H42.5084V39.6H38.1537V31.7892H40.0389V38.1313Z" fill="white"/>
<path d="M72.3899 38.2203H69.5015L69.0384 39.6H67.0651L69.8653 31.7892H72.0481L74.8483 39.6H72.8529L72.3899 38.2203ZM71.9048 36.7516L70.9457 33.8921L69.9976 36.7516H71.9048Z" fill="white"/>
<path d="M86.295 35.6835C86.295 34.912 86.4604 34.2259 86.7911 33.6251C87.1219 33.0168 87.5812 32.5458 88.1692 32.212C88.7645 31.8708 89.437 31.7002 90.1867 31.7002C91.1054 31.7002 91.8918 31.945 92.5459 32.4345C93.2 32.9241 93.6373 33.5917 93.8578 34.4373H91.7852C91.6309 34.1109 91.4104 33.8624 91.1237 33.6918C90.8445 33.5212 90.5247 33.4359 90.1646 33.4359C89.584 33.4359 89.1136 33.6399 88.7535 34.0479C88.3934 34.4558 88.2133 35.0011 88.2133 35.6835C88.2133 36.3659 88.3934 36.9111 88.7535 37.3191C89.1136 37.7271 89.584 37.931 90.1646 37.931C90.5247 37.931 90.8445 37.8457 91.1237 37.6751C91.4104 37.5045 91.6309 37.256 91.7852 36.9297H93.8578C93.6373 37.7753 93.2 38.4429 92.5459 38.9324C91.8918 39.4146 91.1054 39.6557 90.1867 39.6557C89.437 39.6557 88.7645 39.4888 88.1692 39.155C87.5812 38.8138 87.1219 38.3427 86.7911 37.7419C86.4604 37.1411 86.295 36.4549 86.295 35.6835Z" fill="white"/>
<path d="M105.607 35.6835C105.607 34.912 105.772 34.2259 106.103 33.6251C106.434 33.0168 106.893 32.5458 107.481 32.212C108.076 31.8708 108.749 31.7002 109.498 31.7002C110.417 31.7002 111.203 31.945 111.858 32.4345C112.512 32.9241 112.949 33.5917 113.17 34.4373H111.097C110.943 34.1109 110.722 33.8624 110.435 33.6918C110.156 33.5212 109.836 33.4359 109.476 33.4359C108.896 33.4359 108.425 33.6399 108.065 34.0479C107.705 34.4558 107.525 35.0011 107.525 35.6835C107.525 36.3659 107.705 36.9111 108.065 37.3191C108.425 37.7271 108.896 37.931 109.476 37.931C109.836 37.931 110.156 37.8457 110.435 37.6751C110.722 37.5045 110.943 37.256 111.097 36.9297H113.17C112.949 37.7753 112.512 38.4429 111.858 38.9324C111.203 39.4146 110.417 39.6557 109.498 39.6557C108.749 39.6557 108.076 39.4888 107.481 39.155C106.893 38.8138 106.434 38.3427 106.103 37.7419C105.772 37.1411 105.607 36.4549 105.607 35.6835Z" fill="white"/>
<path d="M127.123 33.3135V34.8935H129.648V36.3622H127.123V38.0757H129.979V39.6H125.238V31.7892H129.979V33.3135H127.123Z" fill="white"/>
<path d="M144.917 39.6779C144.351 39.6779 143.844 39.5852 143.396 39.3998C142.947 39.2143 142.587 38.9399 142.315 38.5764C142.051 38.2129 141.911 37.7753 141.896 37.2635H143.903C143.932 37.5527 144.031 37.7753 144.2 37.931C144.369 38.0794 144.59 38.1536 144.862 38.1536C145.141 38.1536 145.362 38.0905 145.523 37.9644C145.685 37.8309 145.766 37.6492 145.766 37.4192C145.766 37.2264 145.7 37.0669 145.567 36.9408C145.442 36.8147 145.284 36.7108 145.093 36.6292C144.91 36.5476 144.645 36.4549 144.3 36.3511C143.8 36.1953 143.392 36.0395 143.076 35.8838C142.76 35.728 142.488 35.498 142.26 35.1939C142.032 34.8898 141.918 34.4929 141.918 34.0034C141.918 33.2764 142.179 32.709 142.701 32.301C143.223 31.8856 143.903 31.6779 144.741 31.6779C145.593 31.6779 146.28 31.8856 146.802 32.301C147.324 32.709 147.603 33.2801 147.64 34.0145H145.6C145.586 33.7623 145.494 33.5657 145.325 33.4248C145.156 33.2764 144.939 33.2023 144.674 33.2023C144.447 33.2023 144.263 33.2653 144.123 33.3914C143.984 33.5101 143.914 33.6844 143.914 33.9144C143.914 34.1666 144.031 34.3631 144.267 34.5041C144.502 34.645 144.869 34.7971 145.369 34.9603C145.869 35.1309 146.273 35.2941 146.582 35.4498C146.898 35.6056 147.17 35.8318 147.397 36.1285C147.625 36.4253 147.739 36.8073 147.739 37.2746C147.739 37.7196 147.625 38.1239 147.397 38.4874C147.177 38.8508 146.854 39.1401 146.427 39.3552C146.001 39.5704 145.498 39.6779 144.917 39.6779Z" fill="white"/>
<path d="M162.614 39.6779C162.048 39.6779 161.541 39.5852 161.092 39.3998C160.644 39.2143 160.284 38.9399 160.012 38.5764C159.747 38.2129 159.608 37.7753 159.593 37.2635H161.6C161.629 37.5527 161.728 37.7753 161.897 37.931C162.066 38.0794 162.287 38.1536 162.559 38.1536C162.838 38.1536 163.058 38.0905 163.22 37.9644C163.382 37.8309 163.463 37.6492 163.463 37.4192C163.463 37.2264 163.396 37.0669 163.264 36.9408C163.139 36.8147 162.981 36.7108 162.79 36.6292C162.606 36.5476 162.342 36.4549 161.996 36.3511C161.497 36.1953 161.089 36.0395 160.773 35.8838C160.457 35.728 160.185 35.498 159.957 35.1939C159.729 34.8898 159.615 34.4929 159.615 34.0034C159.615 33.2764 159.876 32.709 160.398 32.301C160.92 31.8856 161.6 31.6779 162.437 31.6779C163.29 31.6779 163.977 31.8856 164.499 32.301C165.021 32.709 165.3 33.2801 165.337 34.0145H163.297C163.283 33.7623 163.191 33.5657 163.022 33.4248C162.853 33.2764 162.636 33.2023 162.371 33.2023C162.143 33.2023 161.96 33.2653 161.82 33.3914C161.68 33.5101 161.611 33.6844 161.611 33.9144C161.611 34.1666 161.728 34.3631 161.963 34.5041C162.199 34.645 162.566 34.7971 163.066 34.9603C163.566 35.1309 163.97 35.2941 164.278 35.4498C164.594 35.6056 164.866 35.8318 165.094 36.1285C165.322 36.4253 165.436 36.8073 165.436 37.2746C165.436 37.7196 165.322 38.1239 165.094 38.4874C164.874 38.8508 164.55 39.1401 164.124 39.3552C163.698 39.5704 163.194 39.6779 162.614 39.6779Z" fill="white"/>
</svg>
